<?xml version="1.0" encoding="utf-8"?>
<!-- Generator: Adobe Illustrator 16.0.4, SVG Export Plug-In . SVG Version: 6.00 Build 0)  -->
<!DOCTYPE svg PUBLIC "-//W3C//DTD SVG 1.1//EN" "http://www.w3.org/Graphics/SVG/1.1/DTD/svg11.dtd">
<svg version="1.1" xmlns="http://www.w3.org/2000/svg" xmlns:xlink="http://www.w3.org/1999/xlink" x="0px" y="0px" width="927px"
	 height="639px" viewBox="0 0 927 639" enable-background="new 0 0 927 639" xml:space="preserve">
<g id="Stand_Dezember_13">
	<rect x="52.936" y="54.792" fill="#2790B0" width="449.064" height="45.968"/>
	<text transform="matrix(1 0 0 1 256.5884 87.2163)" fill="#FFFFFF" font-family="'HelveticaNeue'" font-size="24">GUI</text>
	<rect x="52.936" y="109.083" fill="#2C4E72" width="685.484" height="45.967"/>
	<text transform="matrix(1 0 0 1 63.4839 141.5063)" fill="#FFFFFF" font-family="'HelveticaNeue'" font-size="24">Controller</text>
	<rect x="52.936" y="220.211" fill="#2C4E72" width="685.484" height="45.967"/>
	<text transform="matrix(1 0 0 1 63.4839 251.6353)" fill="#FFFFFF" font-family="'HelveticaNeue'" font-size="24">RAMSIS Core</text>
	<rect x="52.936" y="274.018" fill="#2C4E72" width="137.097" height="72.982"/>
	<rect x="52.936" y="411" fill="#95BB65" width="137.097" height="29.756"/>
	<polygon fill="#2C4E72" points="692.609,274.017 245.81,274.017 207.974,274.017 200,274.017 200,314 245.81,314 511.773,314 
		738.42,314 738.42,285.04 738.42,274.017 	"/>
	<rect x="52.936" y="54.792" fill="#2790B0" width="685.484" height="45.968"/>
	<text transform="matrix(1 0 0 1 63.4839 87.2163)" fill="#FFFFFF" font-family="'HelveticaNeue'" font-size="24">GUI</text>
	<text transform="matrix(1 0 0 1 63.4839 295.6353)"><tspan x="0" y="0" fill="#FFFFFF" font-family="'HelveticaNeue'" font-size="18">Event and </tspan><tspan x="0" y="21.6" fill="#FFFFFF" font-family="'HelveticaNeue'" font-size="18">Result</tspan><tspan x="0" y="43.2" fill="#FFFFFF" font-family="'HelveticaNeue'" font-size="18">Histories</tspan></text>
	<text transform="matrix(1 0 0 1 63.4839 430.6504)"><tspan x="0" y="0" fill="#FFFFFF" font-family="'HelveticaNeue'" font-size="18">ORM </tspan><tspan x="46.691" y="0" fill="#FFFFFF" font-family="'HelveticaNeue'" font-size="10">(sqlalchemy)</tspan></text>
	<rect x="752.936" y="54.792" fill="#95BB65" width="121.064" height="385.965"/>
	<text transform="matrix(1 0 0 1 797.459 87.7769)" fill="#FFFFFF" font-family="'HelveticaNeue'" font-size="24">QT</text>
	<text transform="matrix(1 0 0 1 763.4668 387.585)"><tspan x="0" y="0" fill="#FFFFFF" font-family="'HelveticaNeue'" font-size="18">run loop</tspan><tspan x="0" y="21.601" fill="#FFFFFF" font-family="'HelveticaNeue'" font-size="18">notifications</tspan><tspan x="0" y="43.2" fill="#FFFFFF" font-family="'HelveticaNeue'" font-size="18">ui tools</tspan></text>
	<text transform="matrix(1 0 0 1 212.79 302.1357)" fill="#FFFFFF" font-family="'HelveticaNeue'" font-size="24">Forecast Engine</text>
	<g>
		<g>
			<g>
				
					<line fill="none" stroke="#2790B0" stroke-width="10" stroke-miterlimit="10" x1="365.007" y1="163" x2="365.053" y2="193.895"/>
				<g>
					<path fill="#2790B0" d="M365.08,212c-3.174-8.515-8.583-19.077-14.306-25.621l14.275,5.14l14.257-5.182
						C373.603,192.897,368.225,203.476,365.08,212z"/>
				</g>
			</g>
		</g>
		<g>
			<g>
				<line fill="none" stroke="#2790B0" stroke-width="10" stroke-miterlimit="10" x1="426.349" y1="212" x2="426.344" y2="209"/>
				
					<line fill="none" stroke="#2790B0" stroke-width="10" stroke-miterlimit="10" stroke-dasharray="4.9789,4.9789" x1="426.337" y1="204.021" x2="426.312" y2="186.595"/>
				
					<line fill="none" stroke="#2790B0" stroke-width="10" stroke-miterlimit="10" x1="426.308" y1="184.105" x2="426.303" y2="181.105"/>
				<g>
					<path fill="#2790B0" d="M426.276,163c3.174,8.515,8.583,19.077,14.306,25.621l-14.275-5.14l-14.257,5.182
						C417.753,182.103,423.131,171.524,426.276,163z"/>
				</g>
			</g>
		</g>
	</g>
	<g>
		<g>
			<ellipse fill="#4E4D4A" cx="121.484" cy="592" rx="68.548" ry="23"/>
			<rect x="52.936" y="534" fill="#4E4D4A" width="137.097" height="58"/>
			<ellipse fill="#4E4D4A" stroke="#FFFFFF" stroke-miterlimit="10" cx="121.484" cy="534" rx="68.548" ry="23"/>
		</g>
		<text transform="matrix(1 0 0 1 108.9829 586.6348)" fill="#FFFFFF" font-family="'HelveticaNeue'" font-size="18">DB</text>
	</g>
	<g>
		<g>
			
				<line fill="none" stroke="#4E4D4A" stroke-width="5.8095" stroke-miterlimit="10" x1="122.461" y1="457.519" x2="122.506" y2="490.481"/>
			<g>
				<path fill="#4E4D4A" d="M122.447,447c-1.83,4.952-4.955,11.097-8.269,14.908l8.285-3.01l8.291,2.987
					C127.431,458.083,124.289,451.947,122.447,447z"/>
			</g>
			<g>
				<path fill="#4E4D4A" d="M122.521,501c-1.843-4.947-4.985-11.083-8.309-14.886l8.293,2.987l8.283-3.01
					C127.474,489.903,124.349,496.048,122.521,501z"/>
			</g>
		</g>
	</g>
	<rect x="52.936" y="351.635" fill="#2C4E72" width="137.097" height="54.365"/>
	<text transform="matrix(1 0 0 1 63.4839 374.8286)" fill="#FFFFFF" font-family="'HelveticaNeue'" font-size="18">Store</text>
	<g>
		
			<rect x="609.064" y="228.389" fill="#2C4E72" stroke="#FFFFFF" stroke-width="0.9353" stroke-miterlimit="10" width="119.936" height="29.613"/>
		<text transform="matrix(1 0 0 1 638 247.7754)" fill="#FFFFFF" font-family="'HelveticaNeue'" font-size="14">Scheduler</text>
	</g>
	<g>
		
			<rect x="480.064" y="228.389" fill="#2C4E72" stroke="#FFFFFF" stroke-width="0.9353" stroke-miterlimit="10" width="119.936" height="29.613"/>
		<text transform="matrix(1 0 0 1 509 247.7754)" fill="#FFFFFF" font-family="'HelveticaNeue'" font-size="14">Simulator</text>
	</g>
	<g>
		<g>
			<path fill="#2C4E72" d="M736.119,321.623v21.723v60.531l-224.448-0.001l-265.876,0.001h-43.672v-82.254h5.848h37.824h446.652
				H736.119 M738.242,319.5h-45.795H245.795h-37.824H200V406h45.795l265.876-0.001L738.242,406v-62.654V319.5L738.242,319.5z"/>
		</g>
		<text transform="matrix(1 0 0 1 212.7905 347)" fill="#2C4E72" font-family="'HelveticaNeue'" font-size="24">Forecast / Scenario Job</text>
	</g>
	<g>
		<g>
			<g>
				<polyline fill="none" stroke="#2C4E72" stroke-width="0.758" stroke-miterlimit="10" points="318.115,392.825 317.021,394.5 
					315.021,394.5 				"/>
				
					<line fill="none" stroke="#2C4E72" stroke-width="0.758" stroke-miterlimit="10" stroke-dasharray="4.0092,4.0092" x1="311.012" y1="394.5" x2="216.795" y2="394.5"/>
				<polyline fill="none" stroke="#2C4E72" stroke-width="0.758" stroke-miterlimit="10" points="214.791,394.5 212.791,394.5 
					212.791,392.5 				"/>
				
					<line fill="none" stroke="#2C4E72" stroke-width="0.758" stroke-miterlimit="10" stroke-dasharray="3.7,3.7" x1="212.791" y1="388.8" x2="212.791" y2="375.85"/>
				<polyline fill="none" stroke="#2C4E72" stroke-width="0.758" stroke-miterlimit="10" points="212.791,374 212.791,372 
					214.791,372 				"/>
				
					<line fill="none" stroke="#2C4E72" stroke-width="0.758" stroke-miterlimit="10" stroke-dasharray="4.0092,4.0092" x1="218.8" y1="372" x2="313.017" y2="372"/>
				<polyline fill="none" stroke="#2C4E72" stroke-width="0.758" stroke-miterlimit="10" points="315.021,372 317.021,372 
					318.115,373.674 				"/>
				
					<line fill="none" stroke="#2C4E72" stroke-width="0.758" stroke-miterlimit="10" stroke-dasharray="3.146,3.146" x1="319.835" y1="376.308" x2="322.417" y2="380.259"/>
				<polyline fill="none" stroke="#2C4E72" stroke-width="0.758" stroke-miterlimit="10" points="323.277,381.576 324.371,383.25 
					323.277,384.924 				"/>
				
					<line fill="none" stroke="#2C4E72" stroke-width="0.758" stroke-miterlimit="10" stroke-dasharray="3.146,3.146" x1="321.556" y1="387.559" x2="318.975" y2="391.509"/>
			</g>
		</g>
		<text transform="matrix(1 0 0 1 219.2749 387.6504)" fill="#2C4E72" font-family="'HelveticaNeue'" font-size="12">Calibration Stage</text>
	</g>
	<g>
		<g>
			<g>
				<polyline fill="none" stroke="#2C4E72" stroke-width="0.758" stroke-miterlimit="10" points="434.904,392.825 433.811,394.5 
					431.811,394.5 				"/>
				
					<line fill="none" stroke="#2C4E72" stroke-width="0.758" stroke-miterlimit="10" stroke-dasharray="4.0092,4.0092" x1="427.802" y1="394.5" x2="333.585" y2="394.5"/>
				<polyline fill="none" stroke="#2C4E72" stroke-width="0.758" stroke-miterlimit="10" points="331.581,394.5 329.581,394.5 
					329.581,392.5 				"/>
				
					<line fill="none" stroke="#2C4E72" stroke-width="0.758" stroke-miterlimit="10" stroke-dasharray="3.7,3.7" x1="329.581" y1="388.8" x2="329.581" y2="375.85"/>
				<polyline fill="none" stroke="#2C4E72" stroke-width="0.758" stroke-miterlimit="10" points="329.581,374 329.581,372 
					331.581,372 				"/>
				
					<line fill="none" stroke="#2C4E72" stroke-width="0.758" stroke-miterlimit="10" stroke-dasharray="4.0092,4.0092" x1="335.59" y1="372" x2="429.806" y2="372"/>
				<polyline fill="none" stroke="#2C4E72" stroke-width="0.758" stroke-miterlimit="10" points="431.811,372 433.811,372 
					434.904,373.674 				"/>
				
					<line fill="none" stroke="#2C4E72" stroke-width="0.758" stroke-miterlimit="10" stroke-dasharray="3.146,3.146" x1="436.625" y1="376.308" x2="439.206" y2="380.259"/>
				<polyline fill="none" stroke="#2C4E72" stroke-width="0.758" stroke-miterlimit="10" points="440.066,381.576 441.16,383.25 
					440.066,384.924 				"/>
				
					<line fill="none" stroke="#2C4E72" stroke-width="0.758" stroke-miterlimit="10" stroke-dasharray="3.146,3.146" x1="438.346" y1="387.559" x2="435.765" y2="391.509"/>
			</g>
		</g>
		<text transform="matrix(1 0 0 1 336.0645 387.6504)" fill="#2C4E72" font-family="'HelveticaNeue'" font-size="12">IS Forecast Stage</text>
	</g>
	<g>
		<polygon fill="none" stroke="#2C4E72" stroke-width="0.8197" stroke-miterlimit="10" points="567.409,394.5 445.58,394.5 
			445.58,372 567.409,372 576,383.25 		"/>
		<text transform="matrix(1 0 0 1 452.0645 387.6504)" fill="#2C4E72" font-family="'HelveticaNeue'" font-size="12">Hazard Stage</text>
	</g>
	<g>
		<polygon fill="none" stroke="#2C4E72" stroke-width="0.8484" stroke-miterlimit="10" points="714.509,394.5 584,394.5 584,372 
			714.509,372 723.711,383.25 		"/>
		<text transform="matrix(1 0 0 1 591.4844 387.6504)" fill="#2C4E72" font-family="'HelveticaNeue'" font-size="12">Risk Stage</text>
	</g>
	<rect x="200" y="411" fill="#2C4E72" width="241.16" height="29.756"/>
	<text transform="matrix(1 0 0 1 212.79 432.6504)" fill="#FFFFFF" font-family="'HelveticaNeue'" font-size="18">IS Model Control</text>
	<rect x="445.58" y="411" fill="#2C4E72" width="292.662" height="29.756"/>
	<text transform="matrix(1 0 0 1 452.0645 432.6504)" fill="#FFFFFF" font-family="'HelveticaNeue'" font-size="18">OpenQuake</text>
	<rect x="200" y="447" fill="#353432" width="165.007" height="29.756"/>
	<text transform="matrix(1 0 0 1 212.791 469.1504)" fill="#FFFFFF" font-family="'HelveticaNeue'" font-size="18">Forecast Models</text>
	<rect x="369.561" y="447" fill="#353432" width="10.939" height="29.756"/>
	<rect x="385.37" y="447" fill="#353432" width="10.939" height="29.756"/>
	<rect x="400.561" y="447" fill="#353432" width="10.939" height="29.756"/>
	<g>
		<g>
			<ellipse fill="#4E4D4A" cx="590.564" cy="592" rx="68.548" ry="23"/>
			<rect x="522.016" y="534" fill="#4E4D4A" width="137.097" height="58"/>
			<ellipse fill="#4E4D4A" stroke="#FFFFFF" stroke-miterlimit="10" cx="590.564" cy="534" rx="68.548" ry="23"/>
		</g>
		<text transform="matrix(1 0 0 1 578.0625 586.6348)" fill="#FFFFFF" font-family="'HelveticaNeue'" font-size="18">DB</text>
	</g>
	<g>
		<g>
			
				<line fill="none" stroke="#4E4D4A" stroke-width="5.8095" stroke-miterlimit="10" x1="591.542" y1="457.519" x2="591.586" y2="490.481"/>
			<g>
				<path fill="#4E4D4A" d="M591.527,447c-1.83,4.952-4.955,11.097-8.269,14.908l8.284-3.01l8.292,2.987
					C596.511,458.083,593.369,451.947,591.527,447z"/>
			</g>
			<g>
				<path fill="#4E4D4A" d="M591.601,501c-1.843-4.947-4.985-11.083-8.309-14.886l8.292,2.987l8.283-3.01
					C596.554,489.903,593.429,496.048,591.601,501z"/>
			</g>
		</g>
	</g>
</g>
<g id="Stand_Juni_14" display="none">
	<rect x="52.936" y="54.792" display="inline" fill="#2790B0" width="449.064" height="45.968"/>
	
		<text transform="matrix(1 0 0 1 256.5884 87.2163)" display="inline" fill="#FFFFFF" font-family="'HelveticaNeue'" font-size="24">GUI</text>
	<rect x="52.936" y="109.083" display="inline" fill="#2C4E72" width="685.484" height="45.967"/>
	
		<text transform="matrix(1 0 0 1 63.4839 141.5063)" display="inline" fill="#FFFFFF" font-family="'HelveticaNeue'" font-size="24">Controller</text>
	<rect x="52.936" y="220.211" display="inline" fill="#2C4E72" width="685.484" height="45.967"/>
	
		<text transform="matrix(1 0 0 1 63.4839 251.6353)" display="inline" fill="#FFFFFF" font-family="'HelveticaNeue'" font-size="24">ATLAS Core</text>
	<rect x="52.936" y="274.018" display="inline" fill="#2C4E72" width="137.097" height="98.982"/>
	<rect x="52.936" y="411" display="inline" fill="#95BB65" width="137.097" height="29.756"/>
	<polygon display="inline" fill="#2C4E72" points="692.453,274.017 244.128,274.017 206.161,274.017 198.161,274.017 
		198.161,440.758 244.128,440.758 244.128,319.984 511,319.5 511,440.756 738.42,440.758 738.42,319.984 738.42,274.017 	"/>
	<rect x="52.936" y="54.792" display="inline" fill="#2790B0" width="449.064" height="45.968"/>
	<text transform="matrix(1 0 0 1 63.4839 87.2163)" display="inline" fill="#FFFFFF" font-family="'HelveticaNeue'" font-size="24">GUI</text>
	<text transform="matrix(1 0 0 1 63.4839 294.6353)" display="inline"><tspan x="0" y="0" fill="#FFFFFF" font-family="'HelveticaNeue'" font-size="18">ATLS Project</tspan><tspan x="0" y="28.8" fill="#FFFFFF" font-family="'HelveticaNeue'" font-size="14">event history, </tspan><tspan x="0" y="45.6" fill="#FFFFFF" font-family="'HelveticaNeue'" font-size="14">hydraulics,</tspan><tspan x="0" y="62.4" fill="#FFFFFF" font-family="'HelveticaNeue'" font-size="14">well info</tspan></text>
	
		<text transform="matrix(1 0 0 1 63.4839 430.6504)" display="inline" fill="#FFFFFF" font-family="'HelveticaNeue'" font-size="18">sqlalchemy</text>
	<rect x="752.936" y="54.792" display="inline" fill="#95BB65" width="121.064" height="385.965"/>
	<text transform="matrix(1 0 0 1 797.459 87.7769)" display="inline" fill="#FFFFFF" font-family="'HelveticaNeue'" font-size="24">QT</text>
	<text transform="matrix(1 0 0 1 763.4668 365.9849)" display="inline"><tspan x="0" y="0" fill="#FFFFFF" font-family="'HelveticaNeue'" font-size="18">threading</tspan><tspan x="0" y="21.6" fill="#FFFFFF" font-family="'HelveticaNeue'" font-size="18">run loop</tspan><tspan x="0" y="43.201" fill="#FFFFFF" font-family="'HelveticaNeue'" font-size="18">notifications</tspan><tspan x="0" y="64.8" fill="#FFFFFF" font-family="'HelveticaNeue'" font-size="18">ui tools</tspan></text>
	
		<text transform="matrix(1 0 0 1 207.2905 303.6357)" display="inline" fill="#FFFFFF" font-family="'HelveticaNeue'" font-size="24">Forecast Engine</text>
	<g display="inline">
		<g>
			<g>
				
					<line fill="none" stroke="#2790B0" stroke-width="10" stroke-miterlimit="10" x1="365.007" y1="163" x2="365.053" y2="193.895"/>
				<g>
					<path fill="#2790B0" d="M365.08,212c-3.174-8.515-8.583-19.077-14.306-25.621l14.275,5.14l14.257-5.182
						C373.603,192.897,368.225,203.476,365.08,212z"/>
				</g>
			</g>
		</g>
		<g>
			<g>
				<line fill="none" stroke="#2790B0" stroke-width="10" stroke-miterlimit="10" x1="426.349" y1="212" x2="426.344" y2="209"/>
				
					<line fill="none" stroke="#2790B0" stroke-width="10" stroke-miterlimit="10" stroke-dasharray="4.9789,4.9789" x1="426.337" y1="204.021" x2="426.312" y2="186.595"/>
				
					<line fill="none" stroke="#2790B0" stroke-width="10" stroke-miterlimit="10" x1="426.308" y1="184.105" x2="426.303" y2="181.105"/>
				<g>
					<path fill="#2790B0" d="M426.276,163c3.174,8.515,8.583,19.077,14.306,25.621l-14.275-5.14l-14.257,5.182
						C417.753,182.103,423.131,171.524,426.276,163z"/>
				</g>
			</g>
		</g>
	</g>
	<g display="inline">
		<rect x="252" y="326" fill="#4E4D4A" width="253" height="34"/>
		<text transform="matrix(1 0 0 1 259.5 349.6353)" fill="#FFFFFF" font-family="'HelveticaNeue'" font-size="18">RJ</text>
	</g>
	<g display="inline">
		<g>
			<ellipse fill="#4E4D4A" cx="121.484" cy="572" rx="68.548" ry="23"/>
			<rect x="52.936" y="514" fill="#4E4D4A" width="137.097" height="58"/>
			<ellipse fill="#4E4D4A" stroke="#FFFFFF" stroke-miterlimit="10" cx="121.484" cy="514" rx="68.548" ry="23"/>
		</g>
		<text transform="matrix(1 0 0 1 108.9829 566.6348)" fill="#FFFFFF" font-family="'HelveticaNeue'" font-size="18">DB</text>
	</g>
	<g display="inline">
		<g>
			
				<line fill="none" stroke="#4E4D4A" stroke-width="5" stroke-miterlimit="10" x1="122.464" y1="456.053" x2="122.504" y2="477.947"/>
			<g>
				<path fill="#4E4D4A" d="M122.447,447c-1.573,4.263-4.26,9.553-7.11,12.834l7.129-2.594l7.137,2.567
					C126.741,456.537,124.034,451.257,122.447,447z"/>
			</g>
			<g>
				<path fill="#4E4D4A" d="M122.521,487c-1.588-4.257-4.295-9.537-7.157-12.808l7.139,2.567l7.127-2.594
					C126.779,477.447,124.092,482.737,122.521,487z"/>
			</g>
		</g>
	</g>
	<rect x="511" y="54.792" display="inline" fill="#2790B0" width="227.42" height="45.967"/>
	
		<text transform="matrix(1 0 0 1 518.2656 87.2163)" display="inline" fill="#FFFFFF" font-family="'HelveticaNeue'" font-size="24">CLI</text>
	<rect x="52.936" y="377.387" display="inline" fill="#2C4E72" width="137.097" height="29.613"/>
	
		<text transform="matrix(1 0 0 1 63.4839 397.8281)" display="inline" fill="#FFFFFF" font-family="'HelveticaNeue'" font-size="18">Store</text>
	<rect x="252" y="366.984" display="inline" fill="#4E4D4A" width="253" height="34"/>
	<text transform="matrix(1 0 0 1 259.5 390.1934)" display="inline" fill="#FFFFFF" font-family="'HelveticaNeue'" font-size="18">(ETAS)</text>
	<rect x="368" y="407" display="inline" fill="#4E4D4A" width="137" height="34"/>
	<text transform="matrix(1 0 0 1 375.5 430.6504)" display="inline" fill="#FFFFFF" font-family="'HelveticaNeue'" font-size="18">Spatial Shapiro</text>
	<g display="inline">
		
			<rect x="609.064" y="228.389" fill="#2C4E72" stroke="#FFFFFF" stroke-width="0.9353" stroke-miterlimit="10" width="119.936" height="29.613"/>
		<text transform="matrix(1 0 0 1 638 247.7754)" fill="#FFFFFF" font-family="'HelveticaNeue'" font-size="14">Scheduler</text>
	</g>
	<g display="inline">
		
			<rect x="480.064" y="228.389" fill="#2C4E72" stroke="#FFFFFF" stroke-width="0.9353" stroke-miterlimit="10" width="119.936" height="29.613"/>
		<text transform="matrix(1 0 0 1 509 247.7754)" fill="#FFFFFF" font-family="'HelveticaNeue'" font-size="14">Simulator</text>
	</g>
	<g display="inline">
		
			<rect x="519.871" y="328.193" fill="#2C4E72" stroke="#FFFFFF" stroke-width="1.2367" stroke-miterlimit="10" width="209.678" height="29.613"/>
		<text transform="matrix(1 0 0 1 529.2578 347.5801)" fill="#FFFFFF" font-family="'HelveticaNeue'" font-size="14">Model Performance Evaluation</text>
	</g>
	<rect x="251.936" y="407" display="inline" fill="#2C4E72" width="107.064" height="33.756"/>
	
		<text transform="matrix(1 0 0 1 258.4839 430.6504)" display="inline" fill="#FFFFFF" font-family="'HelveticaNeue'" font-size="18">Matlab IF</text>
</g>
</svg>
